<?xml version="1.0" encoding="utf-8"?>
<!-- Generator: Adobe Illustrator 27.3.1, SVG Export Plug-In . SVG Version: 6.00 Build 0)  -->
<svg version="1.1" id="Layer_1" xmlns="http://www.w3.org/2000/svg" xmlns:xlink="http://www.w3.org/1999/xlink" x="0px" y="0px"
	 viewBox="0 0 35.4 39.2" style="enable-background:new 0 0 35.4 39.2;" xml:space="preserve">
<style type="text/css">
	.st0{fill:#FFFFFF;}
</style>
<g id="Layer_2_00000036251904153264495090000013971188884905997230_">
	<g id="Layer_2-2">
		<path d="M17.7,39.2c-1.3,0-2.6-0.4-3.6-1.2c-1.2-1-2.3-2.2-3.3-3.5c-2.7-3.3-5-6.9-7-10.7c-1.3-2.3-2.3-4.6-3-7.1
			c-0.5-1.6-0.8-3.3-0.8-5C0,7.7,2.2,4.1,5.8,2.3c1.9-0.9,3.9-1.6,6-1.8c2-0.3,4-0.5,6-0.5c2.5,0,5.1,0.2,7.6,0.8
			c2.3,0.4,4.4,1.4,6.2,2.8c2,1.7,3.4,4,3.7,6.7c0.2,2.2,0,4.4-0.7,6.5c-1.2,3.7-2.8,7.2-4.9,10.4c-1.8,3.1-3.9,6-6.2,8.6
			c-0.7,0.8-1.5,1.6-2.3,2.3C20.1,38.8,18.9,39.2,17.7,39.2z"/>
		<path class="st0" d="M17.7,4.1c-1.8,0-3.6,0.1-5.3,0.4c-1.6,0.2-3.2,0.7-4.7,1.4C5.4,7,4,9.3,4.1,11.8c0,1.3,0.2,2.6,0.6,3.8
			c0.7,2.2,1.6,4.3,2.7,6.3c1.9,3.5,4.1,6.9,6.6,10c0.8,1.1,1.7,2,2.7,2.9c0.3,0.2,0.6,0.3,1,0.3c0.3,0,0.6-0.1,0.8-0.3
			c0.7-0.5,1.3-1.1,1.8-1.8c2.2-2.5,4.1-5.2,5.8-8.1c1.9-2.9,3.4-6.1,4.5-9.4c0.5-1.5,0.7-3.2,0.6-4.8c-0.2-1.6-1-3-2.2-4
			c-1.4-1-3-1.7-4.6-2C22.2,4.3,20,4.1,17.7,4.1L17.7,4.1z"/>
	</g>
</g>
</svg>
