<svg xmlns="http://www.w3.org/2000/svg" viewBox="0 0 49.53 42.07"><defs><style>.cls-1{fill:#e14842;}</style></defs><g id="Layer_2" data-name="Layer 2"><g id="Layer_2-2" data-name="Layer 2"><path d="M47.28,31.1c1,.93,2.46,2.21,2.23,4.14a4.26,4.26,0,0,1-1.32,2.38l-1.52,1.61c-.16.17-.31.35-.48.54-.86,1-1.93,2.22-3.52,2.3H42.5a6.88,6.88,0,0,1-3.69-1.57l-.46-.32c-1.31-.87-2.55-1.81-3.48-2.53L32.6,35.86c-.91-.73-1.86-1.49-2.81-2.21a18.65,18.65,0,1,1,7.54-14.16,19.34,19.34,0,0,1-.5,3.48c2.43,1.63,4.79,3.37,7,5.19C45,29.07,46.08,30,47.14,31Zm-2.92,4,.33-.33a57.46,57.46,0,0,0-5.08-4.3c-1.3-1-2.7-2.05-4.29-3.13l-.49.62a17.5,17.5,0,0,1-1.76,2.51c.8.61,1.58,1.24,2.37,1.87l2,1.57c1,.77,1.89,1.43,2.75,2,.48.33,1,.65,1.46.95.22.14.43.27.65.39l.16-.17,1.43-1.51C44,35.48,44.19,35.32,44.36,35.15ZM32.83,19.29A14.18,14.18,0,0,0,19.29,4.52l-.63,0A14.17,14.17,0,0,0,8.23,28.24a14.1,14.1,0,0,0,9.83,4.59,14,14,0,0,0,10.08-3.62L31,25.6A14.06,14.06,0,0,0,32.83,19.29Z"/><path class="cls-1" d="M44.69,34.82l-.33.33c-.17.17-.34.33-.49.5l-1.43,1.51-.16.17c-.22-.12-.43-.25-.65-.39-.49-.3-1-.62-1.46-.95-.86-.6-1.76-1.26-2.75-2l-2-1.57c-.79-.63-1.57-1.26-2.37-1.87A17.5,17.5,0,0,0,34.83,28l.49-.62c1.59,1.08,3,2.1,4.29,3.13A57.46,57.46,0,0,1,44.69,34.82Z"/><path class="cls-1" d="M29.12,9.11A14.11,14.11,0,0,1,31,25.6l-2.88,3.61a14,14,0,0,1-10.08,3.62,14.17,14.17,0,0,1,.6-28.33l.63,0A14,14,0,0,1,29.12,9.11Zm-.3,9.56A10.15,10.15,0,1,0,18.68,28.82,10.15,10.15,0,0,0,28.82,18.67Z"/><path d="M18.68,8.53A10.15,10.15,0,1,1,8.53,18.67,10.15,10.15,0,0,1,18.68,8.53Zm6.17,10.14a6.18,6.18,0,1,0-6.17,6.18A6.18,6.18,0,0,0,24.85,18.67Z"/></g></g></svg>