<svg xmlns="http://www.w3.org/2000/svg" viewBox="0 0 48.29 42.62"><g id="Layer_2" data-name="Layer 2"><g id="Layer_2-2" data-name="Layer 2"><path d="M35.21,39c2.12-1,4.25-1.94,6.38-2.87a3.36,3.36,0,0,0,2.24-3.56c0-1,0-2,0-3,0-1.37,0-2.78,0-4.19s.23-2,1.34-2.36a2.88,2.88,0,0,0,2-1.84,2.36,2.36,0,0,0-.61-2.21,5.32,5.32,0,0,1-1.61-4c.17-1.32,1.16-2.62,3-4l.42-.3V8.77l-.5-.29c-.17-.09-.33-.2-.5-.3a6.34,6.34,0,0,0-1.37-.73l-1-.38C40.23,5.38,35.41,3.62,30.63,2a4.51,4.51,0,0,0-3.31.47,21.28,21.28,0,0,0-2.6,1.84l-.16.13-.16-.26c-.49-.84-.95-1.62-1.38-2.41A2.87,2.87,0,0,0,19,.32C14.55,2.12,9.8,4,4.47,6A2.91,2.91,0,0,0,2.55,7.63a3,3,0,0,0,.55,2.54c.62,1,1.19,2,1.79,3l.39.69-.8.69c-1.08.92-2.11,1.8-3.12,2.69A3,3,0,0,0,0,19.78c.17,1,1.2,1.62,2.09,2l.61.27A16.89,16.89,0,0,0,5,23c.8.24,1,.47,1,1.46-.07,1.72-.06,3.47,0,5.16,0,1.09,0,2.18,0,3.27a3,3,0,0,0,2.13,3.2c2.58,1,5.15,2,7.72,3,2.86,1.11,5.81,2.25,8.73,3.34a4.73,4.73,0,0,0,1.61.27,4.47,4.47,0,0,0,1.77-.34C30.36,41.22,32.82,40.1,35.21,39ZM14.12,14.09C17.53,12.66,20.78,11.31,24,10a2.32,2.32,0,0,1,.51.14c3.63,1.34,7.25,2.7,11.15,4.16l.57.21-.7.32c-3.17,1.44-6.16,2.8-9.15,4.11a1.48,1.48,0,0,1-.75-.11c-3.56-1.35-7.11-2.72-10.85-4.17l-1-.4ZM8.25,17a.84.84,0,0,1,.46-.08c3.85,1.45,7.68,2.93,11.68,4.48l1.53.6c-1,.78-1.89,1.51-2.78,2.16a1,1,0,0,1-.34,0c-3.74-1.52-7.47-3.07-11.34-4.68L6,18.86C6.79,18.18,7.51,17.54,8.25,17Zm1.93,9.11v-.93l1.3.52c2,.8,3.88,1.56,5.71,2.4a4,4,0,0,0,4.7-.67c.67-.57,1.4-1.11,2.17-1.68v12l-4.47-1.73c-2.9-1.12-5.79-2.24-8.7-3.33-.67-.25-.77-.39-.74-1.05C10.2,29.76,10.19,28,10.18,26.08Zm31-14.45A5.76,5.76,0,0,1,38.74,11h0L28.2,7c1.06-.88,2.1-.92,3.61-.25,2.71,1.19,5.55,2.17,8.3,3.12l2.21.76A3.23,3.23,0,0,1,41.21,11.63ZM31.27,25.72l-2.05-3.41,11.51-5.23,1.45,2.69Zm-22.34-14L7.54,9.34,19.71,4.58l1.21,2.08ZM28.42,29.26c1.29,1.9,2.33,1.59,5.45-.16,1.52-.85,3.05-1.66,4.7-2.53l1-.51v.4c0,2,0,3.93,0,5.82a.69.69,0,0,1-.17.2C36.14,34,33,35.41,29.65,36.9l-1.23.56Z"/></g></g></svg>