<svg xmlns="http://www.w3.org/2000/svg" viewBox="0 0 9.99 9.99"><defs><style>.cls-1{fill:#464c7f;}</style></defs><title>Asset 10</title><g id="Layer_2" data-name="Layer 2"><g id="Layer_2-2" data-name="Layer 2"><path class="cls-1" d="M2.56,0H7.43l.31.05A2.71,2.71,0,0,1,9.9,2.11a3.43,3.43,0,0,1,.09.44V7.43s0,.07,0,.1a5,5,0,0,1-.21.78A2.67,2.67,0,0,1,7.22,10c-1.48,0-3,0-4.45,0A2.65,2.65,0,0,1,1.2,9.5,2.71,2.71,0,0,1,0,7.18V2.81a2.59,2.59,0,0,1,.05-.56A2.71,2.71,0,0,1,2.11.08C2.25,0,2.41,0,2.56,0ZM.89,5V7.16a1.91,1.91,0,0,0,.1.67A1.86,1.86,0,0,0,2.81,9.1H7.18A2.46,2.46,0,0,0,7.83,9,1.84,1.84,0,0,0,9.1,7.17c0-1.45,0-2.9,0-4.36A2.1,2.1,0,0,0,9,2.16,1.85,1.85,0,0,0,7.18.89c-1.45,0-2.91,0-4.37,0a1.82,1.82,0,0,0-1.57.78A1.88,1.88,0,0,0,.89,2.82Z"/><path class="cls-1" d="M5,7.57A2.58,2.58,0,1,1,7.57,5,2.59,2.59,0,0,1,5,7.57ZM6.68,5A1.69,1.69,0,1,0,5,6.68,1.68,1.68,0,0,0,6.68,5Z"/><path class="cls-1" d="M7.67,1.67a.65.65,0,0,1,.65.65.65.65,0,1,1-.65-.65Z"/></g></g></svg>