<svg xmlns="http://www.w3.org/2000/svg" viewBox="0 0 10 10"><defs><style>.cls-1{fill:#464c7f;}</style></defs><title>Asset 11</title><g id="Layer_2" data-name="Layer 2"><g id="Layer_2-2" data-name="Layer 2"><path class="cls-1" d="M0,10V0H10c0,.05,0,.09,0,.14V10H6.92s0-.07,0-.1c0-1.21,0-2.42,0-3.63,0-.09,0-.12.13-.11.35,0,.69,0,1,0,.1,0,.13,0,.15-.13,0-.39.1-.79.15-1.18l0-.29H7c-.1,0-.12,0-.12-.12,0-.3,0-.61,0-.91a1.15,1.15,0,0,1,0-.19.55.55,0,0,1,.57-.41h.85c.07,0,.09,0,.09-.09V1.58c0-.08,0-.1-.09-.1-.44,0-.87,0-1.31,0a1.75,1.75,0,0,0-1.28.59,1.81,1.81,0,0,0-.45,1.22V4.42c0,.1,0,.13-.12.13H4.14c-.09,0-.13,0-.13.11C4,5.12,4,5.58,4,6v.1H5.19c.1,0,.12,0,.12.12V9.88a.45.45,0,0,1,0,.11H0Z"/></g></g></svg>