<svg xmlns="http://www.w3.org/2000/svg" viewBox="0 0 48.29 42.61"><defs><style>.cls-1{fill:#e14842;}</style></defs><g id="Layer_2" data-name="Layer 2"><g id="Layer_2-2" data-name="Layer 2"><path d="M48.29,8.76v1.9l-.42.3c-1.87,1.34-2.86,2.64-3,4s.38,2.52,1.62,4a2.35,2.35,0,0,1,.6,2.2,2.84,2.84,0,0,1-2,1.84c-1.11.4-1.43,1-1.34,2.37s.07,2.81,0,4.18c0,1,0,2.05,0,3.06a3.35,3.35,0,0,1-2.23,3.55c-2.14.94-4.27,1.91-6.39,2.87-2.39,1.09-4.85,2.22-7.3,3.28a4.61,4.61,0,0,1-1.77.33,4.73,4.73,0,0,1-1.61-.27c-2.92-1.08-5.86-2.22-8.71-3.33-2.58-1-5.15-2-7.74-3A3,3,0,0,1,6,32.85c0-1.09,0-2.18,0-3.27,0-1.69,0-3.44,0-5.17,0-1-.2-1.22-1-1.45a18.65,18.65,0,0,1-2.28-.9l-.62-.28c-.89-.38-1.92-1-2.09-2a3,3,0,0,1,1.34-2.51c1-.9,2-1.78,3.12-2.7l.8-.69-.39-.68c-.6-1.06-1.17-2-1.79-3a3,3,0,0,1-.55-2.53A2.92,2.92,0,0,1,4.47,6C9.81,4,14.55,2.12,19,.32a2.87,2.87,0,0,1,4,1.46c.43.79.88,1.56,1.38,2.4l.16.27.16-.13a19.31,19.31,0,0,1,2.6-1.84A4.46,4.46,0,0,1,30.63,2c4.78,1.61,9.6,3.36,14.26,5.05l1,.38a7.79,7.79,0,0,1,1.38.73l.49.31Zm-6,1.87-2.21-.76c-2.75-.95-5.59-1.93-8.3-3.12-1.51-.66-2.54-.63-3.61.25L38.74,11a5.76,5.76,0,0,0,2.47.67A3.23,3.23,0,0,0,42.32,10.63Zm-.13,9.14-1.46-2.7L29.22,22.3l2.05,3.41Zm-2.7,12.5c0-1.89,0-3.8,0-5.82v-.4l-1,.51c-1.65.87-3.18,1.69-4.7,2.54-3.12,1.74-4.16,2.06-5.45.16v8.19l1.2-.55c3.31-1.49,6.51-2.94,9.7-4.43A.49.49,0,0,0,39.49,32.27Zm-4-17.45.7-.32-.57-.21c-3.9-1.46-7.52-2.82-11.15-4.16A1.51,1.51,0,0,0,24,10c-3.17,1.3-6.42,2.66-9.83,4.08l-.41.18,1,.38c3.76,1.45,7.32,2.83,10.9,4.19a1.51,1.51,0,0,0,.74.1C29.32,17.62,32.31,16.26,35.48,14.82ZM24.05,37.67v-12c-.77.57-1.5,1.11-2.17,1.69a4,4,0,0,1-4.7.67c-1.83-.85-3.71-1.6-5.71-2.41l-1.3-.52c0,.31,0,.62,0,.93,0,1.9,0,3.68,0,5.48,0,.67.07.81.74,1.05,2.91,1.09,5.8,2.21,8.7,3.34ZM21.92,22l-1.63-.63c-4-1.54-7.76-3-11.57-4.45a1,1,0,0,0-.47.09c-.74.56-1.46,1.2-2.22,1.88l1.44.6c3.86,1.6,7.59,3.15,11.33,4.67a.65.65,0,0,0,.34,0C20,23.47,21,22.74,21.92,22Zm-1-15.3L19.71,4.57,7.54,9.33l1.39,2.33Z"/><path class="cls-1" d="M40.11,9.87l2.21.76a3.23,3.23,0,0,1-1.11,1A5.76,5.76,0,0,1,38.74,11L28.2,7c1.07-.88,2.1-.91,3.61-.25C34.52,7.94,37.36,8.92,40.11,9.87Z"/><polygon class="cls-1" points="40.73 17.07 42.19 19.77 31.27 25.71 29.22 22.3 40.73 17.07"/><path class="cls-1" d="M39.53,26.45c0,2,0,3.93,0,5.82a.49.49,0,0,1-.17.2c-3.19,1.49-6.39,2.94-9.7,4.43l-1.2.55V29.26c1.29,1.9,2.33,1.58,5.45-.16,1.52-.85,3.05-1.67,4.7-2.54l1-.51Z"/><path class="cls-1" d="M24.05,25.71v12l-4.47-1.73c-2.9-1.13-5.79-2.25-8.7-3.34-.67-.24-.77-.38-.74-1.05.06-1.8,0-3.58,0-5.48,0-.31,0-.62,0-.93l1.3.52c2,.81,3.88,1.56,5.71,2.41a4,4,0,0,0,4.7-.67C22.55,26.82,23.28,26.28,24.05,25.71Z"/><path class="cls-1" d="M20.29,21.33l1.63.63c-1,.78-1.89,1.51-2.78,2.16a.65.65,0,0,1-.34,0c-3.74-1.52-7.47-3.07-11.33-4.67L6,18.85c.76-.68,1.48-1.32,2.22-1.88a1,1,0,0,1,.47-.09C12.53,18.32,16.33,19.79,20.29,21.33Z"/><polygon class="cls-1" points="19.71 4.57 20.93 6.66 8.93 11.66 7.54 9.33 19.71 4.57"/></g></g></svg>