<svg xmlns="http://www.w3.org/2000/svg" viewBox="0 0 11.84 9.65"><defs><style>.cls-1{fill:#464c7f;}</style></defs><title>Asset 9</title><g id="Layer_2" data-name="Layer 2"><g id="Layer_2-2" data-name="Layer 2"><path class="cls-1" d="M0,8.56a5,5,0,0,0,3.57-1,2.49,2.49,0,0,1-1.79-.84,2.54,2.54,0,0,1-.48-.85,2.76,2.76,0,0,0,1.07,0A2.45,2.45,0,0,1,.46,3.4a2.41,2.41,0,0,0,1.08.29A2.42,2.42,0,0,1,.49,2,2.33,2.33,0,0,1,.8.45,7,7,0,0,0,5.8,3c0-.24,0-.48,0-.71A2.44,2.44,0,0,1,7.53.09,2.39,2.39,0,0,1,9.91.71a.18.18,0,0,0,.16,0A5,5,0,0,0,11.41.24a.3.3,0,0,1,.1,0,1.88,1.88,0,0,1-.39.74c-.19.21-.39.39-.6.59.22-.05.44-.09.66-.15s.42-.13.66-.19c-.2.23-.38.47-.59.69s-.37.32-.55.48a.25.25,0,0,0-.06.15,7,7,0,0,1-3,6A6.19,6.19,0,0,1,4.7,9.58a7.11,7.11,0,0,1-2.94-.21A6.59,6.59,0,0,1,.05,8.6Z"/></g></g></svg>