<svg xmlns="http://www.w3.org/2000/svg" viewBox="0 0 49.53 42.07"><g id="Layer_2" data-name="Layer 2"><g id="Layer_2-2" data-name="Layer 2"><path d="M48.18,37.62a4.2,4.2,0,0,0,1.32-2.38c.24-1.94-1.19-3.21-2.22-4.14L47.14,31c-1.07-.95-2.18-1.9-3.29-2.81-2.24-1.82-4.6-3.57-7-5.19a18.48,18.48,0,0,0,.5-3.48,18.7,18.7,0,1,0-7.53,14.16c.94.72,1.89,1.47,2.81,2.2.75.6,1.5,1.2,2.26,1.79.93.72,2.17,1.66,3.48,2.53l.47.32a6.81,6.81,0,0,0,3.68,1.58h.17c1.59-.09,2.66-1.32,3.53-2.31l.47-.53ZM18.65,4.5h.64A14.18,14.18,0,0,1,32.82,19.29a13.92,13.92,0,0,1-1.8,6.3L28.14,29.2a14,14,0,0,1-10.09,3.62h0a14.16,14.16,0,0,1-9-24.6A14.1,14.1,0,0,1,18.65,4.5ZM42.44,37.15l-.17.18-.64-.39c-.5-.31-1-.63-1.46-1-.86-.59-1.76-1.26-2.75-2l-2-1.57-2.36-1.87A18.16,18.16,0,0,0,34.82,28l.5-.62c1.59,1.08,3,2.1,4.28,3.12a57.58,57.58,0,0,1,5.09,4.3l-.34.33-.49.5Zm.11,1.33Z"/><path d="M18.67,28.81A10.15,10.15,0,1,0,8.53,18.67,10.15,10.15,0,0,0,18.67,28.81Zm0-4a6.18,6.18,0,1,1,6.18-6.18A6.18,6.18,0,0,1,18.67,24.85Z"/></g></g></svg>