<?xml version="1.0" encoding="UTF-8"?>
<svg id="Layer_1" data-name="Layer 1" xmlns="http://www.w3.org/2000/svg" viewBox="0 0 35.28 39.22">
  <defs>
    <style>
      .cls-1 {
        fill: #fff;
      }
    </style>
  </defs>
  <g id="Layer_2" data-name="Layer 2">
    <g id="Layer_2-2" data-name="Layer 2-2">
      <path d="m17.63,39.22c-1.3,0-2.56-.42-3.58-1.22-1.21-1.04-2.31-2.21-3.28-3.48-2.65-3.34-5-6.91-7-10.67-1.26-2.26-2.26-4.64-3-7.12C.27,15.11,0,13.43,0,11.73-.11,7.74,2.12,4.06,5.7,2.3c1.89-.94,3.91-1.56,6-1.84C13.69.15,15.69,0,17.7,0c2.54-.03,5.08.23,7.57.77,2.27.45,4.41,1.42,6.25,2.83,2.05,1.65,3.36,4.04,3.67,6.65.23,2.19,0,4.4-.68,6.49-1.17,3.68-2.83,7.18-4.93,10.42-1.82,3.06-3.91,5.96-6.24,8.65-.71.82-1.48,1.58-2.32,2.26-.97.75-2.16,1.16-3.39,1.15Z"/>
      <path class="cls-1" d="m17.63,4.1c-1.79,0-3.57.13-5.34.4-1.63.22-3.22.7-4.7,1.43-2.27,1.06-3.67,3.37-3.57,5.87.01,1.28.22,2.55.61,3.77.66,2.19,1.56,4.3,2.68,6.29,1.89,3.54,4.11,6.9,6.61,10.04.8,1.05,1.7,2.02,2.69,2.89.29.22.64.34,1,.34.3,0,.59-.09.83-.27.65-.53,1.26-1.12,1.81-1.76,2.18-2.52,4.13-5.23,5.82-8.1,1.91-2.93,3.43-6.09,4.5-9.42.51-1.54.7-3.18.56-4.8-.17-1.58-.97-3.02-2.22-4-1.37-1.01-2.95-1.7-4.63-2-2.18-.47-4.41-.7-6.64-.67h-.01Z"/>
    </g>
  </g>
</svg>