<svg xmlns="http://www.w3.org/2000/svg" viewBox="0 0 27.38 30.75"><defs><style>.cls-1{fill:#f7e3a0;}</style></defs><title>Asset 8</title><g id="Layer_2" data-name="Layer 2"><g id="Layer_2-2" data-name="Layer 2"><path d="M25,3a7.11,7.11,0,0,1,2.59,4.68A11.82,11.82,0,0,1,27,12.61a28.88,28.88,0,0,1-2.32,5.56L22.84,16.6V7.76l-8.35-4.5h-1.1L5.05,7.76V16.6L3,17.75A28.24,28.24,0,0,1,.86,12.59,12.84,12.84,0,0,1,.25,8.75a7.21,7.21,0,0,1,4.1-6.7A15.75,15.75,0,0,1,9,.62a31.67,31.67,0,0,1,5-.37,28.15,28.15,0,0,1,6.21.63A11.19,11.19,0,0,1,25,3Z" transform="translate(-0.25 -0.25)"/><path class="cls-1" d="M14.49,3.26l8.35,4.5V16.6H14.49ZM21.74,8.6l-6.1-3.32V15.43h6.09V13.82H17.25V12.09h1.48V10.48H17.25V8l3.5,1.89,1,.56V8.6Z" transform="translate(-0.25 -0.25)"/><polygon points="15.39 5.03 21.49 8.35 21.48 8.35 21.49 10.18 20.5 9.62 17 7.73 17 10.23 18.49 10.23 18.48 11.84 17 11.84 17 13.57 21.48 13.56 21.48 15.18 15.39 15.18 15.39 5.03"/><path d="M14.49,3.26V16.59h8.35l1.85,1.57c-.57,1.06-1.18,2.1-1.8,3.13a51.32,51.32,0,0,1-5.28,7.32,14.33,14.33,0,0,1-1.81,1.76A3.12,3.12,0,0,1,12,30.3a17.39,17.39,0,0,1-2.63-2.79,60.65,60.65,0,0,1-6-9.06L3,17.75,5,16.6H13.4V3.26Z" transform="translate(-0.25 -0.25)"/><path class="cls-1" d="M13.39,3.26V16.6H5V7.76ZM12.15,7V5.29L11,5.85,6.3,8.41v7h5.86V10.2H9.1V11.8h1.45v2H7.9V9.1l4.26-2V7Z" transform="translate(-0.25 -0.25)"/><polygon points="11.9 5.04 11.89 6.78 11.89 6.81 11.9 6.84 7.64 8.85 7.65 13.57 10.29 13.57 10.29 11.55 8.84 11.55 8.85 9.94 11.9 9.95 11.9 15.18 6.04 15.18 6.04 8.16 10.79 5.6 11.9 5.04"/></g></g></svg>