<svg xmlns="http://www.w3.org/2000/svg" viewBox="0 0 32.8 25.19"><title>Asset 34</title><g id="Layer_2" data-name="Layer 2"><g id="Layer_2-2" data-name="Layer 2"><path d="M2.8,25.18c-1.65,0-2.79-.8-2.8-1.95a1.63,1.63,0,0,1,.49-1.17,3.26,3.26,0,0,1,2.3-.79H30c1.63,0,2.81.82,2.82,2a1.66,1.66,0,0,1-.74,1.35,3.46,3.46,0,0,1-2.08.6H2.8Z"/><path d="M2.78,3.9A3.2,3.2,0,0,1,.49,3.12,1.6,1.6,0,0,1,0,1.94C0,.82,1.16,0,2.74,0H30.07a2.52,2.52,0,0,1,2.64,1.53,1.72,1.72,0,0,1-1.17,2.08,4.17,4.17,0,0,1-1.5.27c-2.42,0-4.85,0-7.27,0Z"/><path d="M17.65,14.56,3,14.54a5.17,5.17,0,0,1-2-.46,1.6,1.6,0,0,1-.88-2,2.4,2.4,0,0,1,2.16-1.46c.23,0,.47,0,.71,0H23.19c2.21,0,4.41,0,6.62,0a4.79,4.79,0,0,1,2,.48A1.49,1.49,0,0,1,32.73,13a2.26,2.26,0,0,1-2,1.54,5,5,0,0,1-.87.05Z"/></g></g></svg>