<?xml version="1.0" encoding="utf-8"?>
<!-- Generator: Adobe Illustrator 27.3.1, SVG Export Plug-In . SVG Version: 6.00 Build 0)  -->
<svg version="1.1" id="Layer_1" xmlns="http://www.w3.org/2000/svg" xmlns:xlink="http://www.w3.org/1999/xlink" x="0px" y="0px"
	 viewBox="0 0 35.4 39.2" style="enable-background:new 0 0 35.4 39.2;" xml:space="preserve">
<path d="M35.3,10.3c-0.3-2.7-1.7-5-3.7-6.7c-1.8-1.4-3.9-2.4-6.2-2.8C22.9,0.2,20.3,0,17.8,0c-2,0-4,0.2-6,0.5
	c-2.1,0.2-4.1,0.9-6,1.8C2.2,4.1,0,7.7,0,11.7c0,1.7,0.3,3.4,0.8,5c0.7,2.5,1.7,4.8,3,7.1c2,3.8,4.3,7.4,7,10.7
	c1,1.3,2.1,2.5,3.3,3.5c1,0.8,2.3,1.2,3.6,1.2c1.2,0,2.4-0.4,3.5-1.1c0.8-0.7,1.6-1.5,2.3-2.3c2.3-2.6,4.4-5.5,6.2-8.6
	c2.1-3.2,3.7-6.7,4.9-10.4C35.3,14.7,35.5,12.5,35.3,10.3z M30.6,15.5c-1.1,3.3-2.6,6.5-4.5,9.4c-1.7,2.9-3.6,5.6-5.8,8.1
	c-0.5,0.7-1.1,1.3-1.8,1.8c-0.2,0.2-0.5,0.3-0.8,0.3c-0.4,0-0.7-0.1-1-0.3c-1-0.9-1.9-1.8-2.7-2.9c-2.5-3.1-4.7-6.5-6.6-10
	c-1.1-2-2-4.1-2.7-6.3c-0.4-1.2-0.6-2.5-0.6-3.8C4,9.3,5.4,7,7.7,5.9c1.5-0.7,3.1-1.2,4.7-1.4c1.7-0.3,3.5-0.4,5.3-0.4
	c2.3,0,4.5,0.2,6.7,0.6c1.6,0.3,3.2,1,4.6,2c1.2,1,2,2.4,2.2,4C31.3,12.3,31.1,14,30.6,15.5z"/>
</svg>
