<svg xmlns="http://www.w3.org/2000/svg" viewBox="0 0 35.38 39.22"><title>Asset 30</title><g id="Layer_2" data-name="Layer 2"><g id="Layer_2-2" data-name="Layer 2"><path d="M17.71,39.22A5.74,5.74,0,0,1,14.13,38a22.45,22.45,0,0,1-3.28-3.48,69.74,69.74,0,0,1-7-10.67,35.13,35.13,0,0,1-3-7.12,16.86,16.86,0,0,1-.77-5A10.19,10.19,0,0,1,5.78,2.3a19.13,19.13,0,0,1,6-1.84,37.06,37.06,0,0,1,6-.46,34.12,34.12,0,0,1,7.57.77A15,15,0,0,1,31.6,3.6a10.06,10.06,0,0,1,3.67,6.65,15.77,15.77,0,0,1-.68,6.49,43.53,43.53,0,0,1-4.93,10.42,60.26,60.26,0,0,1-6.24,8.65,18.68,18.68,0,0,1-2.32,2.26A5.49,5.49,0,0,1,17.71,39.22Zm0-35.12a35,35,0,0,0-5.34.4,15.28,15.28,0,0,0-4.7,1.43A6.19,6.19,0,0,0,4.1,11.8a12.8,12.8,0,0,0,.61,3.77,31.08,31.08,0,0,0,2.68,6.29A66.19,66.19,0,0,0,14,31.9a19.47,19.47,0,0,0,2.69,2.89,1.65,1.65,0,0,0,1,.34,1.29,1.29,0,0,0,.83-.27,14.6,14.6,0,0,0,1.81-1.76A55.2,55.2,0,0,0,26.15,25a39.34,39.34,0,0,0,4.5-9.42,11.87,11.87,0,0,0,.56-4.8,5.91,5.91,0,0,0-2.22-4,11.13,11.13,0,0,0-4.63-2,29.47,29.47,0,0,0-6.64-.67Z"/></g></g></svg>