<svg xmlns="http://www.w3.org/2000/svg" viewBox="0 0 37.57 46.27"><title>Asset 29</title><g id="Layer_2" data-name="Layer 2"><g id="Layer_2-2" data-name="Layer 2"><path d="M13.93,21.53a1.6,1.6,0,1,0-3.18,0q0,7.14,0,14.28a1.6,1.6,0,1,0,3.19,0V21.53Z"/><path d="M25.24,19.8a1.58,1.58,0,0,0-1.59,1.72v7.14c0,2.4,0,4.79,0,7.18a2.07,2.07,0,0,0,.2.89,1.53,1.53,0,0,0,1.75.77,1.6,1.6,0,0,0,1.21-1.64V21.5A1.59,1.59,0,0,0,25.24,19.8Z"/><path d="M20.38,21.67a3.54,3.54,0,0,0,0-.46,1.55,1.55,0,0,0-1.16-1.35,1.48,1.48,0,0,0-1.68.59,2.53,2.53,0,0,0-.32,1.17q0,7.06,0,14.12a2.21,2.21,0,0,0,.05.51,1.51,1.51,0,0,0,1.22,1.25A1.4,1.4,0,0,0,20,36.92a2.4,2.4,0,0,0,.35-1.2c0-2.34,0-4.68,0-7Z"/><path d="M37.57,10.84a5.9,5.9,0,0,0-6-6h-5s0,0,0,0h-.33a.38.38,0,0,1-.15-.31A4.87,4.87,0,0,0,21.34,0c-1.76,0-3.52,0-5.28,0a4.82,4.82,0,0,0-4.3,3.17,14,14,0,0,0-.4,1.58H11v0h-5a5.85,5.85,0,0,0-5.83,5A16.18,16.18,0,0,0,0,12.16V13a2.07,2.07,0,0,0,2.11,2.12h.39V39.68A6.64,6.64,0,0,0,9,46.26H28.55A6.22,6.22,0,0,0,32.32,45a6.49,6.49,0,0,0,2.74-5.47q0-9.37,0-18.76v-5.7h.39A2.09,2.09,0,0,0,37.57,13V10.84ZM16.19,3.22c1.74,0,3.47,0,5.2,0a1.63,1.63,0,0,1,1.52,1.56H14.67A1.65,1.65,0,0,1,16.19,3.22ZM30.88,39.46a2.46,2.46,0,0,1-2.62,2.63H9.36A2.47,2.47,0,0,1,6.69,39.4V15.09H30.88ZM33.1,10.87H5.1l-.93,0a1.93,1.93,0,0,1,.46-1.3A1.76,1.76,0,0,1,6,9c.9,0,1.79,0,2.68,0l8.8,0L31.37,9a1.76,1.76,0,0,1,1.87,1.1,3,3,0,0,1,.12.77Z"/></g></g></svg>