<svg xmlns="http://www.w3.org/2000/svg" viewBox="0 0 81.82 90.61"><defs><style>.cls-1{fill:#464c7f;}.cls-2{fill:#e14842;}.cls-3{font-size:11.45px;fill:#f7e3a0;font-family:SuisseIntl-Bold, Suisse Intl;font-weight:700;}</style></defs><g id="Layer_2" data-name="Layer 2"><g id="Layer_2-2" data-name="Layer 2"><circle class="cls-1" cx="43.17" cy="44.93" r="36.88"/><circle class="cls-2" cx="39.38" cy="40.91" r="36.88"/><text class="cls-3" transform="translate(18.09 37.2) rotate(-67.58) scale(0.96 1)">R</text><text class="cls-3" transform="translate(21.22 29.83) rotate(-45.58) scale(0.96 1)">E</text><text class="cls-3" transform="translate(26.37 24.5) rotate(-23.44) scale(0.96 1)">C</text><text class="cls-3" transform="translate(34.09 21.29) rotate(-2.34) scale(0.96 1)">E</text><text class="cls-3" transform="translate(41.54 20.9) rotate(18.68) scale(0.96 1)">N</text><text class="cls-3" transform="translate(49.87 23.9) rotate(38.89) scale(0.96 1)">T</text><text class="cls-3" transform="matrix(0.52, 0.8, -0.84, 0.55, 55.5, 28.55)">L</text><text class="cls-3" transform="matrix(0.28, 0.91, -0.96, 0.29, 58.74, 33.13)">Y</text><text class="cls-3" transform="matrix(0.04, 0.95, -1, 0.04, 60.67, 40.76)"> </text><text class="cls-3" transform="matrix(-0.1, 0.95, -0.99, -0.1, 60.77, 43.65)"> </text><text class="cls-3" transform="translate(60.44 46.53) rotate(104.1) scale(0.96 1)"> </text><text class="cls-3" transform="translate(59.69 49.33) rotate(112.46) scale(0.96 1)"> </text><text class="cls-3" transform="matrix(-0.49, 0.82, -0.86, -0.51, 58.55, 51.97)"> </text><text class="cls-3" transform="matrix(-0.6, 0.74, -0.78, -0.63, 57.05, 54.43)"> </text><text class="cls-3" transform="matrix(-0.7, 0.65, -0.68, -0.74, 55.19, 56.65)"> </text><text class="cls-3" transform="translate(53.04 58.57) rotate(145.76) scale(0.96 1)"> </text><text class="cls-3" transform="matrix(-0.86, 0.42, -0.44, -0.9, 50.65, 60.15)"> </text><text class="cls-3" transform="matrix(-0.91, 0.3, -0.31, -0.95, 48.03, 61.39)"> </text><text class="cls-3" transform="matrix(-0.94, 0.17, -0.18, -0.98, 45.26, 62.26)"> </text><text class="cls-3" transform="matrix(0.53, 0.79, -0.83, 0.56, 16.19, 56.15)">V</text><text class="cls-3" transform="matrix(0.76, 0.58, -0.61, 0.79, 22.49, 64.12)">I</text><text class="cls-3" transform="matrix(0.9, 0.33, -0.34, 0.94, 27.34, 67.71)">E</text><text class="cls-3" transform="matrix(0.95, -0.13, 0.13, 0.99, 37.81, 70.91)">W</text><text class="cls-3" transform="matrix(0.78, -0.55, 0.57, 0.82, 51.05, 67.95)">E</text><text class="cls-3" transform="matrix(0.48, -0.83, 0.86, 0.5, 59.41, 61.36)">D</text><circle class="cls-1" cx="39.38" cy="41.94" r="8.38"/></g></g></svg>