<svg xmlns="http://www.w3.org/2000/svg" viewBox="0 0 70.64 53.63"><defs><style>.cls-1{fill:#464c7f;}.cls-2{fill:#e14842;}.cls-3,.cls-4{isolation:isolate;}.cls-4{font-size:9.47px;fill:#f7e3a0;font-family:SuisseIntl-Bold, Suisse Intl;font-weight:700;letter-spacing:0.1em;}.cls-5{font-size:5px;font-family:SuisseIntl-Regular, Suisse Intl;}</style></defs><g id="Layer_2" data-name="Layer 2"><g id="Layer_2-2" data-name="Layer 2"><ellipse id="Ellipse_19" data-name="Ellipse 19" class="cls-1" cx="34.69" cy="25.8" rx="30.54" ry="14.21" transform="translate(-4.61 7.78) rotate(-12.01)"/><ellipse id="Ellipse_18" data-name="Ellipse 18" class="cls-2" cx="32.49" cy="23.04" rx="30.54" ry="14.21" transform="translate(-4.08 7.26) rotate(-12.01)"/><g id="NEW_IN_" data-name="NEW IN " class="cls-3"><text class="cls-4" transform="translate(12.77 31.36) rotate(-12.01)">NEW IN!</text></g><text class="cls-5" transform="translate(6.99 14.37) rotate(-34.05) scale(1.25 1)">C</text><text class="cls-5" transform="translate(10.72 11.87) rotate(-29.49) scale(1.25 1)">L</text><text class="cls-5" transform="translate(13.8 10.15) rotate(-26.55) scale(1.25 1)">I</text><text class="cls-5" transform="translate(15.26 9.37) rotate(-23.11) scale(1.25 1)">C</text><text class="cls-5" transform="matrix(1.19, -0.39, 0.31, 0.95, 19.39, 7.62)">K</text><text class="cls-5" transform="translate(23.31 6.36) rotate(-15.2) scale(1.25 1)"> </text><text class="cls-5" transform="matrix(1.22, -0.27, 0.22, 0.98, 24.7, 5.96)">T</text><text class="cls-5" transform="translate(27.89 5.22) rotate(-8.21) scale(1.25 1)">O</text><text class="cls-5" transform="matrix(1.25, -0.11, 0.09, 1, 32.7, 4.57)"> </text><text class="cls-5" transform="translate(34.13 4.42) rotate(-2.14) scale(1.25 1)">S</text><text class="cls-5" transform="translate(38.08 4.26) rotate(2.08) scale(1.25 1)">H</text><text class="cls-5" transform="translate(42.75 4.42) rotate(6.45) scale(1.25 1)">O</text><text class="cls-5" transform="translate(47.56 4.98) rotate(10.19) scale(1.25 1)">P</text><text class="cls-5" transform="translate(19.2 48.85) rotate(6.7) scale(1.25 1)">N</text><text class="cls-5" transform="matrix(1.25, 0.06, -0.05, 1, 24.03, 49.4)">E</text><text class="cls-5" transform="translate(28.04 49.62) rotate(-2.09) scale(1.25 1)">W</text><text class="cls-5" transform="matrix(1.24, -0.13, 0.1, 0.99, 33.91, 49.34)"> </text><text class="cls-5" transform="matrix(1.24, -0.19, 0.15, 0.99, 35.5, 49.21)">A</text><text class="cls-5" transform="translate(39.74 48.55) rotate(-13.31) scale(1.25 1)">R</text><text class="cls-5" transform="matrix(1.19, -0.38, 0.31, 0.95, 44.03, 47.53)">R</text><text class="cls-5" transform="matrix(1.17, -0.45, 0.36, 0.93, 48.17, 46.14)">I</text><text class="cls-5" transform="matrix(1.14, -0.51, 0.41, 0.91, 49.87, 45.52)">V</text><text class="cls-5" transform="translate(53.34 43.96) rotate(-28.23) scale(1.25 1)">A</text><text class="cls-5" transform="translate(57.1 41.93) rotate(-32.31) scale(1.25 1)">L</text><text class="cls-5" transform="translate(60.22 39.96) rotate(-36.28) scale(1.25 1)">S</text></g></g></svg>