<svg xmlns="http://www.w3.org/2000/svg" viewBox="0 0 107.02 71.88"><defs><style>.cls-1{fill:#464c7f;}.cls-2{font-size:9.47px;fill:#f7e3a0;font-family:SuisseIntl-Bold, Suisse Intl;font-weight:700;}.cls-2,.cls-8{letter-spacing:0.1em;}.cls-3{letter-spacing:0.07em;}.cls-4{letter-spacing:0.1em;}.cls-5{letter-spacing:0.08em;}.cls-6{letter-spacing:0em;}.cls-7{letter-spacing:0.07em;}</style></defs><g id="Layer_2" data-name="Layer 2"><g id="Layer_2-2" data-name="Layer 2"><path d="M60.63,69.41l-5.58-6.59-5.58,6.59C45.78,73.77,35.66,72,35.79,67L36,59.47l-9.86,3.87c-6.52,2.57-13.92-2.29-10-6.57L22,50.31l-11.49.13c-7.59.08-10.31-6.56-3.66-9l10-3.66-10-3.66c-6.65-2.42-3.93-9.06,3.66-9L22,25.29,16.1,18.83c-3.9-4.28,3.5-9.14,10-6.57L36,16.13,35.79,8.6c-.13-5,10-6.76,13.68-2.41l5.58,6.59,5.58-6.59C64.32,1.84,74.44,3.61,74.32,8.6l-.19,7.53L84,12.26c6.52-2.57,13.93,2.29,10,6.57l-5.91,6.46,11.49-.12c7.6-.09,10.31,6.55,3.67,9l-10,3.66,10,3.66c6.64,2.42,3.93,9.06-3.67,9l-11.49-.13L94,56.77c3.91,4.28-3.5,9.14-10,6.57l-9.85-3.87L74.32,67C74.44,72,64.32,73.77,60.63,69.41Z"/><path class="cls-1" d="M57.55,65.69,52,59.1l-5.58,6.59c-3.69,4.36-13.81,2.58-13.68-2.41l.19-7.53L23,59.62c-6.51,2.57-13.92-2.29-10-6.57l5.91-6.46-11.49.13c-7.6.08-10.31-6.56-3.67-9l10.05-3.66-10-3.66c-6.64-2.42-3.93-9.06,3.67-9l11.49.12L13,15.11C9.11,10.83,16.52,6,23,8.54l9.86,3.87L32.7,4.88c-.13-5,10-6.76,13.68-2.41L52,9.06l5.59-6.59c3.69-4.35,13.8-2.58,13.68,2.41L71,12.41,80.9,8.54c6.51-2.57,13.92,2.29,10,6.57L85,21.57l11.49-.12c7.6-.09,10.31,6.55,3.67,9l-10,3.66,10,3.66c6.64,2.42,3.93,9.06-3.67,9L85,46.59l5.91,6.46c3.91,4.28-3.5,9.14-10,6.57L71,55.75l.19,7.53C71.35,68.27,61.24,70.05,57.55,65.69Z"/><text class="cls-2" transform="translate(29.32 31.38)">SHOP <tspan class="cls-3" x="34.41" y="0">B</tspan><tspan class="cls-4" x="41.83" y="0">Y</tspan><tspan class="cls-5"><tspan x="-5.74" y="11.36">C</tspan><tspan class="cls-6" x="2.12" y="11.36">A</tspan><tspan class="cls-4" x="8.94" y="11.36">TEGO</tspan><tspan class="cls-7" x="40.08" y="11.36">R</tspan><tspan class="cls-8" x="47.57" y="11.36">Y</tspan></tspan></text></g></g></svg>