<svg xmlns="http://www.w3.org/2000/svg" width="36.49" height="29.202" viewBox="0 0 36.49 29.202">
  <g id="Group_447" data-name="Group 447" transform="translate(30.766 9.836)">
    <path id="Path_276" data-name="Path 276" d="M-30.766-1.156a11.421,11.421,0,0,1,.916-1.208q3.306-3.345,6.645-6.658a1.918,1.918,0,0,1,3.14.005Q-16.68-5.636-13.3-2.253a1.924,1.924,0,0,1,.271,2.8,1.875,1.875,0,0,1-2.85-.19c-1.258-1.258-2.5-2.535-3.948-3.736v.915q0,9.813,0,19.626c0,1.182-.418,1.866-1.261,2.112a1.827,1.827,0,0,1-2.379-1.885c-.017-3.055-.006-6.11-.006-9.165V-3.583l-1.942,1.939q-.918.916-1.835,1.835c-1.388,1.382-2.494,1.265-3.514-.373Z" fill="#f7e3a0"/>
    <path id="Path_277" data-name="Path 277" d="M4.979,10.685a11.316,11.316,0,0,1-.916,1.208Q.757,15.24-2.583,18.552a1.918,1.918,0,0,1-3.14-.006q-3.386-3.381-6.766-6.764a1.92,1.92,0,0,1-.271-2.8,1.875,1.875,0,0,1,2.85.189c1.258,1.258,2.5,2.535,3.948,3.736v-.914q0-9.813,0-19.626c0-1.184.417-1.866,1.26-2.112A1.827,1.827,0,0,1-2.319-7.86C-2.3-4.8-2.314-1.75-2.314,1.3q0,5.394,0,10.786v1.022L-.37,11.173q.918-.916,1.835-1.834c1.388-1.383,2.494-1.266,3.514.373Z" transform="translate(0.745 0)" fill="#f7e3a0"/>
  </g>
</svg>
