<svg xmlns="http://www.w3.org/2000/svg" viewBox="0 0 182.5 67.64"><defs><style>.cls-1{fill:#e14842;}.cls-2{fill:#464c7f;}.cls-3{fill:#ffe8a3;}</style></defs><title>Asset 11</title><g id="Layer_2" data-name="Layer 2"><g id="Layer_4" data-name="Layer 4"><polygon class="cls-1" points="27.46 0 27.46 43.83 0 43.83 0 14.79 27.46 0"/><polygon class="cls-1" points="31.05 0 31.05 43.83 58.51 43.83 58.51 14.79 31.05 0"/><polygon class="cls-1" points="89.45 0 89.45 43.83 61.99 43.83 61.99 14.79 89.45 0"/><polygon class="cls-1" points="93.05 0 93.05 43.83 120.5 43.83 120.5 14.79 93.05 0"/><polygon class="cls-1" points="151.44 0 151.44 43.83 123.99 43.83 123.99 14.79 151.44 0"/><polygon class="cls-1" points="155.04 0 155.04 43.83 182.5 43.83 182.5 14.79 155.04 0"/><polygon class="cls-2" points="0 67.31 0 48.73 16.13 48.73 16.13 52.74 5.12 52.74 5.12 55.75 15.53 55.75 15.53 59.79 5.12 59.79 5.12 63.28 16.13 63.28 16.13 67.31 0 67.31"/><polygon class="cls-2" points="39.62 67.31 39.62 54.24 39.31 54.2 35.18 67.31 30.41 67.31 26.25 54.21 25.94 54.26 25.94 67.31 20.97 67.31 20.97 48.73 28.89 48.73 32.78 61.63 36.76 48.73 44.59 48.73 44.59 67.31 39.62 67.31"/><path class="cls-2" d="M50,67.33V48.74h8.09c4.44,0,9.53.69,9.53,6.09S62.57,61,58.13,61h-3v6.36ZM55.15,57.1h3.12c2.79,0,4-.68,4-2.27s-1.15-2.23-4-2.23H55.15Z"/><path class="cls-2" d="M81.71,67.64c-6.51,0-10.87-3.86-10.87-9.61s4.36-9.61,10.87-9.61S92.57,52.28,92.57,58,88.21,67.64,81.71,67.64Zm0-15.43c-3.32,0-5.47,2.28-5.47,5.82s2.15,5.83,5.47,5.83,5.46-2.29,5.46-5.83S85,52.21,81.71,52.21Z"/><path class="cls-2" d="M109.27,67.33l-4.49-6.92h-3.14v6.92H96.52V48.74h8.09c4.44,0,9.53.66,9.53,5.78,0,2.4-1.29,4.1-3.82,5.06l-.19.07,5.16,7.68Zm-7.63-10.78h3.12c2.82,0,4-.57,4-2s-1.19-2-4-2h-3.12Z"/><polygon class="cls-2" points="119.37 67.31 119.37 62.86 122.63 62.86 122.63 53.18 119.37 53.18 119.37 48.73 131 48.73 131 53.18 127.75 53.18 127.75 62.86 131 62.86 131 67.31 119.37 67.31"/><path class="cls-2" d="M144.82,67.64c-6.48,0-9.13-2.4-9.13-8.29V48.73h5.12V59.81c0,2.58.66,4.07,4,4.07s3.92-1.58,3.92-4.33V48.73h5.12V59.2C153.86,65.12,151.15,67.64,144.82,67.64Z"/><polygon class="cls-2" points="177.52 67.31 177.52 54.24 177.21 54.2 173.09 67.31 168.31 67.31 164.15 54.21 163.84 54.26 163.84 67.31 158.87 67.31 158.87 48.73 166.79 48.73 170.68 61.63 174.66 48.73 182.5 48.73 182.5 67.31 177.52 67.31"/><polygon class="cls-3" points="3.82 39.99 3.82 17.33 20.64 8.25 22.44 7.28 22.45 12.67 8.57 20.17 8.57 35.24 18.85 35.24 18.85 28.07 14.09 28.07 14.09 23.32 23.61 23.32 23.61 39.99 3.82 39.99"/><polygon class="cls-3" points="34.93 39.99 34.93 8.82 34.93 8.82 34.93 6.69 39.68 9.24 39.68 35.24 49.88 35.24 49.88 16.99 49.88 16.99 49.88 14.82 54.63 17.38 54.63 39.99 34.93 39.99"/><polygon class="cls-3" points="65.84 39.97 65.84 35.22 73.4 35.22 73.41 18.69 68.2 21.5 67.98 21.62 65.87 22.75 65.86 17.37 83.41 7.88 85.52 6.74 85.53 12.13 78.16 16.12 78.15 35.22 85.61 35.22 85.61 39.97 65.84 39.97"/><polygon class="cls-3" points="104.26 16.12 96.88 12.13 96.89 6.74 98.77 7.75 98.68 7.91 99.15 8.16 99.23 8 116.56 17.36 116.54 22.75 114.21 21.5 114.21 21.5 109.01 18.69 109.02 39.97 104.26 39.97 104.26 16.12"/><path class="cls-3" d="M142.79,40V28.07H132.51V40h-4.75V17.33L147.55,6.65V40Zm-10.28-19.8v3.15h10.28v-8.7Z"/><path class="cls-3" d="M158.9,40V6.64l19.72,10.7V28.07H170l8.62,6.35v5.31L163.65,29.18V40Zm4.75-16.65h10.22V20.16l-10.22-5.54Z"/></g></g></svg>